<?xml version="1.0" encoding="UTF-8"?>
<svg id="Layer_1" data-name="Layer 1" xmlns="http://www.w3.org/2000/svg" width="997.52" height="270.6" viewBox="0 0 997.52 270.6">
  <g id="H6lH6j.tif">
    <g>
      <path d="M109.83,258.66l-1-169.32h19.98v19.92c7.89-8.46,14.49-16.75,25.98-20.41,58.96-18.82,85.42,55.18,58.76,98.42-17.11,27.74-59.38,34.9-80.52,7.95-.59-.75.19-1.89-2.21-1.29v64.74h-20.98ZM158.5,104.5c-16.21,2.77-26.26,21.13-27.62,36.21-1.93,21.37,1.26,46.9,25.63,52.98,57.76,14.41,61.8-99.39,1.99-89.19Z"/>
      <path d="M12.93,89.34h18.98v-28.39c.43-.64.96-1.03,1.68-1.31,5.75-2.27,14.25-3.01,20.3-5.16v34.86h30.97v16.93h-30.97v73.2c0,1.16,2.61,7.1,3.54,8.42,5.74,8.12,17.12,6.28,25.42,4.03l.91,16.84c-18.01,6.3-43.18,4.3-49.38-16.81-.65-2.22-2.47-10.83-2.47-12.47v-73.2c-6.16-.5-13.12,1.15-18.98-1v-15.94Z"/>
      <path d="M803.12,49.5l1,156.37h-17.98l-1-17.93-7.48,9.96c-25,20.49-59.12,10.77-70.93-18.93-18.11-45.56,17.86-102.97,68.39-75.15l8.03,8.43v-62.75h19.98ZM748.92,112.49c-32.16,4.55-36.12,65.46-7.43,77.63,19,8.06,39.74-3.96,41.67-24.57.65-6.96.7-21.02,0-27.94-1.71-17.08-17.75-27.46-34.25-25.13Z"/>
      <path d="M332.6,89.34l-.5,13.94c-22.66,28.26-43.63,57.94-66.94,85.65-.85,1.01-1.9,1.29-1.49,2.99h69.93v16.93h-97.9c.46-4.85-1.31-10.73,1.54-14.9,23.18-28.6,44.21-58.93,68.39-86.69h-64.93v-17.93h91.91Z"/>
      <path d="M927.75,96.57c41.42-3.63,63.76,34.26,54.93,71.7-6.07,25.72-29.55,42.76-56.11,40.52-63.88-5.38-63.34-106.56,1.18-112.22ZM952.69,119.5c-6.15-6.14-16.35-9.21-24.95-8.01-39.63,5.56-37.39,80.73,2.72,82.48,35.34,1.54,42.86-53.9,22.23-74.47Z"/>
      <path d="M607.32,99.3v69.22c0,.71,2.03,8.14,2.49,9.47,6.92,19.92,32.86,17.34,43.92,1.94,1.12-1.56,4.54-8.95,4.54-10.41v-70.22h19.98v104.08c0,.18,1.44,1.28,1,2.49h-17.98l-1-16.93-4.99,6.47c-16.59,17.99-49.31,18.93-61.75-4.16-2.14-3.98-6.17-15.59-6.17-19.74v-72.21h19.98Z"/>
      <path d="M538.39,68.43v30.88h27.97v14.94h-27.97v64.24c0,.35,1.85,5.84,2.24,6.73,4.07,9.34,15.46,6.97,23.73,5.72l1.05,14.35-.62.66c-2.29.48-4.7,1.54-6.99,1.85-6.8.94-16.65.92-23.12-1.72-5.78-2.35-10.97-8.04-13.05-13.88-.45-1.27-2.23-7.06-2.23-7.74v-70.22h-16.98v-14.94h15.48c.65,0,1.4-1.62,1.52-2.47.63-4.4-1.09-21.38.41-23.49l18.55-4.91Z"/>
      <path d="M485.37,102.37c1.34,1.87-3.78,11.97-3.92,14.86-8.46-3.37-16.83-7.08-26.22-5.73-9.64,1.38-16.09,8.8-13.27,18.72,2.75,9.69,21.47,13.46,29.83,18.07s16.75,12.59,17.69,22.2c2.03,20.68-9.17,34.19-29.56,37.31-8.15,1.25-19.37.58-27.44-1.39-4.31-1.05-8.66-3.28-12.91-4.57l3.96-14.89c5.64,1.11,10.93,4.36,16.74,5.72,14.14,3.31,32.56.23,30.15-18.11-1.58-12.02-20.73-15.6-29.6-20.29-28.91-15.29-22.21-50.1,8.44-56.7,12.52-2.7,24.51-.1,36.13,4.8Z"/>
      <rect x="835.09" y="99.3" width="19.98" height="106.57"/>
      <path d="M853.78,78.1c-.56.56-2.66,1.71-3.47,2.01-18.12,6.72-22.96-17.71-10.46-22.37,13.55-5.05,23.04,11.2,13.93,20.36Z"/>
    </g>
    <circle cx="384.45" cy="48.62" r="36.68" style="fill: #c14444;"/>
  </g>
</svg>